<?xml version="1.0" standalone="no"?>
<!DOCTYPE svg PUBLIC "-//W3C//DTD SVG 20010904//EN"
 "http://www.w3.org/TR/2001/REC-SVG-20010904/DTD/svg10.dtd">
<svg version="1.0" xmlns="http://www.w3.org/2000/svg"
 width="500.000000pt" height="500.000000pt" viewBox="0 0 500.000000 500.000000"
 preserveAspectRatio="xMidYMid meet">

<g transform="translate(0.000000,500.000000) scale(0.100000,-0.100000)"
fill="#ffffff" stroke="none">
<path d="M2407 4683 l-307 -307 412 -413 c227 -227 410 -414 408 -417 -3 -3
-336 -336 -740 -740 l-735 -736 -406 407 c-224 224 -411 409 -416 410 -9 3
-605 -589 -612 -608 -2 -6 88 -103 200 -215 l203 -203 -199 -200 c-110 -110
-201 -205 -203 -211 -2 -6 84 -100 192 -208 107 -108 195 -201 195 -207 -1 -5
-87 -99 -193 -208 -105 -109 -193 -203 -195 -208 -4 -12 588 -609 604 -609 9
0 204 185 373 353 l48 47 199 -200 c110 -110 206 -199 213 -198 7 2 103 93
213 202 l200 200 203 -203 c112 -112 209 -202 215 -200 19 7 611 603 608 612
-1 5 -186 192 -410 416 l-407 406 740 740 740 740 413 -413 413 -413 304 305
c168 168 306 310 309 317 2 7 -87 101 -199 210 -131 129 -199 202 -194 210 4
7 94 98 201 202 106 105 193 195 193 201 0 6 -90 101 -200 211 -110 110 -200
202 -200 205 0 3 90 96 200 205 110 110 200 204 200 210 0 13 -602 615 -615
615 -6 0 -100 -90 -210 -200 -109 -110 -202 -200 -205 -200 -3 0 -95 90 -205
200 -110 110 -205 200 -211 200 -7 0 -99 -90 -205 -200 -107 -110 -198 -200
-204 -200 -5 0 -97 90 -204 200 -107 110 -199 200 -206 200 -6 0 -149 -138
-318 -307z m1248 -1033 l930 -930 -100 -100 c-55 -55 -104 -99 -108 -97 -8 2
-1720 1710 -1815 1810 l-46 48 99 99 c55 55 102 100 105 100 3 0 423 -418 935
-930z m415 415 l515 -515 -100 -100 c-55 -55 -104 -100 -110 -100 -13 0 -1025
1012 -1025 1025 0 10 190 205 200 205 3 0 237 -232 520 -515z m415 415 l100
-100 -100 -100 c-55 -55 -104 -100 -110 -100 -13 0 -195 182 -195 195 0 10
190 205 200 205 3 0 50 -45 105 -100z m-1885 -2085 l-739 -739 -103 102 -102
103 739 739 740 740 102 -102 103 -103 -740 -740z m-1045 -845 l930 -930 -100
-100 c-55 -55 -104 -100 -110 -100 -13 0 -1855 1843 -1855 1856 0 9 191 204
200 204 3 0 423 -418 935 -930z m-415 -415 l515 -515 -100 -100 c-55 -55 -103
-100 -108 -100 -11 0 -1027 1017 -1027 1027 0 9 192 203 200 203 3 0 237 -232
520 -515z m-415 -415 l100 -100 -103 -103 -102 -102 -102 102 -103 103 100
100 c55 55 102 100 105 100 3 0 50 -45 105 -100z"/>
</g>
</svg>
